<svg width="18" height="19" viewBox="0 0 18 19" fill="none" xmlns="http://www.w3.org/2000/svg">
<path d="M15.5301 2.96967C15.823 3.26256 15.823 3.73744 15.5301 4.03033L3.53015 16.0303C3.23725 16.3232 2.76238 16.3232 2.46949 16.0303C2.17659 15.7374 2.17659 15.2626 2.46949 14.9697L14.4695 2.96967C14.7624 2.67678 15.2373 2.67678 15.5301 2.96967Z" fill="#75808A"/>
<path d="M11.8495 4.52903C11.0047 4.13122 10.0523 3.875 8.9998 3.875C6.79173 3.875 5.02389 5.00277 3.76751 6.19976C2.50824 7.3995 1.69114 8.73476 1.3677 9.31235C1.15573 9.69087 1.13048 10.1428 1.30448 10.5443C1.42599 10.8246 1.63263 11.2589 1.9372 11.7629C2.15144 12.1174 2.6125 12.2311 2.96701 12.0169C3.32151 11.8027 3.43522 11.3416 3.22098 10.9871C2.97601 10.5817 2.80602 10.2312 2.70292 9.99832C3.00723 9.462 3.72795 8.30924 4.80219 7.28578C5.9118 6.22862 7.32734 5.375 8.9998 5.375C9.60135 5.375 10.1697 5.48543 10.7024 5.67604L11.8495 4.52903Z" fill="#75808A"/>
<path d="M13.2677 7.35342C14.3031 8.35959 14.9991 9.47378 15.2967 9.99832C15.1936 10.2312 15.0236 10.5817 14.7786 10.9871C14.5644 11.3416 14.6781 11.8027 15.0326 12.0169C15.3871 12.2311 15.8482 12.1174 16.0624 11.7629C16.367 11.2589 16.5736 10.8246 16.6951 10.5443C16.8691 10.1428 16.8439 9.69087 16.6319 9.31235C16.3168 8.74963 15.5331 7.46774 14.3285 6.29266L13.2677 7.35342Z" fill="#75808A"/>
<path d="M8.99982 7.25C9.04205 7.25 9.08408 7.25087 9.12589 7.2526L6.00242 10.3761C6.00069 10.3343 5.99982 10.2922 5.99982 10.25C5.99982 8.59315 7.34296 7.25 8.99982 7.25Z" fill="#75808A"/>
<path d="M8.99982 13.25C8.52525 13.25 8.07642 13.1398 7.67752 12.9436L11.6934 8.9277C11.8896 9.32661 11.9998 9.77543 11.9998 10.25C11.9998 11.9069 10.6567 13.25 8.99982 13.25Z" fill="#75808A"/>
</svg>
